<?xml version="1.0" encoding="UTF-8" standalone="no"?>
<!-- Created with Inkscape (http://www.inkscape.org/) -->

<svg
   xmlns:dc="http://purl.org/dc/elements/1.1/"
   xmlns:cc="http://creativecommons.org/ns#"
   xmlns:rdf="http://www.w3.org/1999/02/22-rdf-syntax-ns#"
   xmlns:svg="http://www.w3.org/2000/svg"
   xmlns="http://www.w3.org/2000/svg"
   xmlns:sodipodi="http://sodipodi.sourceforge.net/DTD/sodipodi-0.dtd"
   xmlns:inkscape="http://www.inkscape.org/namespaces/inkscape"
   width="810"
   height="810"
   viewBox="0 0 809.99999 809.99998"
   id="svg2"
   version="1.1"
   inkscape:version="0.91 r13725"
   sodipodi:docname="white-fang.svg">
  <defs
     id="defs4" />
  <sodipodi:namedview
     id="base"
     pagecolor="#ffffff"
     bordercolor="#666666"
     borderopacity="1.0"
     inkscape:pageopacity="0.0"
     inkscape:pageshadow="2"
     inkscape:zoom="0.49497475"
     inkscape:cx="254.20876"
     inkscape:cy="404.37288"
     inkscape:document-units="px"
     inkscape:current-layer="layer1"
     showgrid="false"
     fit-margin-top="0"
     fit-margin-left="0"
     fit-margin-right="0"
     fit-margin-bottom="0"
     inkscape:window-width="1440"
     inkscape:window-height="770"
     inkscape:window-x="0"
     inkscape:window-y="0"
     inkscape:window-maximized="1"
     units="px" />
  <metadata
     id="metadata7">
    <rdf:RDF>
      <cc:Work
         rdf:about="">
        <dc:format>image/svg+xml</dc:format>
        <dc:type
           rdf:resource="http://purl.org/dc/dcmitype/StillImage" />
        <dc:title></dc:title>
      </cc:Work>
    </rdf:RDF>
  </metadata>
  <g
     inkscape:label="Layer 1"
     inkscape:groupmode="layer"
     id="layer1"
     transform="translate(-62.079211,-126.73507)">
    <path
       style="fill:#c80000;fill-opacity:1"
       d="m 351.73128,926.04517 c 0,-4.39706 2.71366,-10.88848 7.91764,-18.94008 4.35472,-6.73756 9.40068,-15.2021 11.21326,-18.81006 1.81258,-3.60796 6.24358,-11.05994 9.84668,-16.55994 18.7901,-28.68254 29.02242,-45.36376 29.02242,-47.31372 0,-3.846 -5.579,2.1881 -16.7097,18.07278 -12.8374,18.32036 -16.72024,22.05364 -18.3958,17.6872 -0.7299,-1.90208 -2.68174,-2.6044 -5.32036,-1.9144 -4.07726,1.06624 -4.09304,0.96396 -0.72888,-4.721 1.89126,-3.19598 11.54518,-16.16086 21.45314,-28.81086 9.90796,-12.65 22.4715,-29.525 27.91898,-37.5 11.7384,-17.18478 16.01822,-18.39774 26.81594,-7.6 l 6.9,6.89998 -10.09158,17.60002 c -15.62406,27.2488 -54.48122,84.57058 -66.33072,97.85056 -5.86396,6.57188 -13.14078,16.17898 -16.1707,21.34914 -3.02992,5.17016 -5.921,9.4003 -6.42462,9.4003 -0.50364,0 -0.9157,-3.01046 -0.9157,-6.68992 z m -156,-42.37606 c 0,-1.89706 2.97016,-6.73682 6.60036,-10.75502 3.63018,-4.0182 13.13754,-18.7346 21.12746,-32.70314 7.9899,-13.96854 15.42526,-25.95244 16.523,-26.63088 2.0593,-1.27272 4.91616,-7.62896 7.87192,-17.5143 2.5668,-8.58446 -1.80682,-4.06726 -15.79782,16.31644 -13.09872,19.0837 -24.32492,33.64962 -24.32492,31.5614 0,-3.99332 13.3408,-26.20392 39.58118,-65.89728 16.18036,-24.4757 34.74308,-53.35466 41.2505,-64.17544 11.8937,-19.77728 53.99976,-80.24102 61.72466,-88.6358 5.43884,-5.91048 6.6367,-5.69238 9.20536,1.67608 1.18414,3.39686 3.97218,6.65182 6.19564,7.23326 5.4475,1.42456 5.12728,3.42046 -2.29422,14.30062 -36.45822,53.4487 -64.2649,95.43828 -69.72606,105.29004 -7.75236,13.98506 -26.82074,39.93144 -39.25496,53.41432 -4.77516,5.17788 -8.684,10.57788 -8.68634,12 -0.002,1.42212 -6.97732,14.15172 -15.5,28.28798 -11.88862,19.71926 -17.7072,27.3293 -24.99576,32.69162 -7.62588,5.6105 -9.5,6.30888 -9.5,3.5401 z m 223.65814,-11.94254 c -1.69386,-1.69386 8.02334,-28.83652 12.88512,-35.99148 4.41122,-6.49188 9.26318,-11 11.839,-11 3.6666,0 1.10468,7.90448 -7.45454,23 -10.5791,18.65788 -15.6117,25.64934 -17.26958,23.99148 z m 102.30968,-97.7653 c -2.7323,-1.18236 -5.9552,-3.42796 -7.162,-4.99022 -1.7005,-2.20136 -3.51392,-2.38042 -8.0597,-0.79576 -7.32464,2.5534 -49.6205,-1.40032 -69.38164,-6.48562 -15.58534,-4.01072 -22.11866,-10.22692 -17.10106,-16.27104 3.7262,-4.48852 3.6252,-12.4836 -0.1706,-13.50336 -1.70108,-0.457 -6.69286,-1.4748 -11.09286,-2.26178 -4.4,-0.787 -6.65,-1.88014 -5,-2.4292 1.65,-0.54908 4.8,-2.6096 7,-4.57896 2.2,-1.96934 10.075,-6.0005 17.5,-8.95812 7.425,-2.95762 13.5,-6.27806 13.5,-7.37878 0,-1.10072 -1.575,-1.38652 -3.5,-0.63514 -7.72366,3.01478 -34.57842,9.65006 -35.46562,8.76284 -0.5215,-0.52148 -1.38774,-8.09256 -1.92502,-16.8246 -1.15242,-18.72986 -2.8623,-25.89674 -9.8853,-41.43346 -2.87318,-6.35638 -5.22402,-13.69622 -5.22402,-16.31078 0,-2.61456 -3.22946,-8.61916 -7.1766,-13.34356 -3.94712,-4.72442 -10.25654,-14.70578 -14.02092,-22.18084 -5.50402,-10.92956 -9.82246,-16.03532 -22.05258,-26.07318 -13.6297,-11.18656 -14.73186,-12.5946 -10.61858,-13.56562 4.38986,-1.0363 4.24746,-1.36862 -3.27082,-7.63284 -4.32328,-3.60216 -10.3355,-7.0639 -13.3605,-7.69276 -5.24448,-1.09028 -7.83236,-4.6434 -3.38196,-4.6434 1.16492,0 1.6268,-0.79482 1.02642,-1.76626 -0.60038,-0.97142 -6.2785,-2.3749 -12.61802,-3.11882 -15.65128,-1.8366 -17.94196,-2.66388 -19.04394,-6.87784 -1.04574,-3.9989 -9.09048,-6.24868 -22.2325,-6.2175 -6.95438,0.016 -25.46124,-5.06742 -44.9071,-12.33618 -7.06796,-2.64196 -4.10216,-6.56244 5.8124,-7.6834 6.8692,-0.77664 8.8447,-1.81656 8.8447,-4.65594 0,-2.01078 2.1306,-4.79896 4.73468,-6.19596 4.34048,-2.32854 4.4284,-2.65756 1.05606,-3.95166 -3.1184,-1.19664 -3.2303,-1.69516 -0.73468,-3.2734 2.34618,-1.48376 2.06408,-1.868 -1.3894,-1.89242 -2.38332,-0.016 -4.79182,1.09438 -5.35222,2.46938 -1.18026,2.89596 -8.35466,-4.73476 -11.40478,-12.1302 -3.12912,-7.58694 -2.1837,-21.71886 2.26922,-33.91976 2.29838,-6.29752 4.90794,-14.15004 5.79906,-17.45004 3.8122,-14.11766 6.45318,-18.6933 12.15186,-21.05376 7.17192,-2.97072 7.8345,-6.87288 0.8702,-5.12496 -2.75,0.69022 -5,0.43534 -5,-0.56636 0,-1.0017 2.025,-2.32976 4.5,-2.95124 6.60968,-1.6597 12.31166,-6.37236 10.75588,-8.88966 -0.96922,-1.56824 -3.85974,-1.43904 -10.14854,0.4536 -8.85448,2.6648 -13.10734,1.39714 -13.10734,-3.90694 0,-1.23164 -2.25,-4.19568 -5,-6.58678 -6.14016,-5.3388 -6.2058,-7.505 -0.49252,-16.2517 2.47088,-3.7828 6.41034,-10.0828 8.75436,-14 2.34402,-3.91722 6.34208,-8.19148 8.8846,-9.49838 6.98502,-3.5904 11.47678,-13.74874 9.89638,-22.3811 l -1.32598,-7.24272 17.83536,0.70622 c 9.80944,0.38844 18.66704,-0.1254 19.68354,-1.14196 1.13094,-1.13094 -0.4966,-5.08514 -4.19376,-10.18892 -6.35834,-8.77744 -7.50588,-14.11144 -3.82726,-17.79006 1.61962,-1.61962 1.02824,-2.8497 -2.2009,-4.57788 -3.3872,-1.81278 -4.21742,-3.7134 -3.56472,-8.1606 0.46798,-3.18858 -0.22668,-12.66636 -1.5437,-21.06172 l -2.39458,-15.26428 5.89434,-3.2604 c 3.24188,-1.79322 7.40194,-4.4522 9.24458,-5.90884 2.95608,-2.33684 2.76198,-2.48868 -1.64974,-1.29048 -10.31372,2.8011 -14.99308,2.16338 -15.12328,-2.06108 -0.0678,-2.2 -0.6843,-5.35 -1.36998,-7 -3.95398,-9.51466 -10.07178,-32.10162 -8.98836,-33.18506 1.75484,-1.75484 35.45256,4.5206 52.2769,9.73538 8.82708,2.736 14.11446,5.4965 14.68158,7.66518 0.50972,1.94922 3.57092,3.83672 7.20472,4.44238 24.7516,4.1254 32.85462,8.18366 56.09456,28.09406 9.69978,8.31012 19.34324,15.65118 21.4299,16.31346 5.20306,1.65138 4.75834,4.66694 -1.01176,6.86074 -10.37426,3.94428 -7.60384,6.07386 7.90166,6.07386 12.65778,0 15.13552,0.51206 14.20544,2.93582 -0.86054,2.2425 0.43598,2.87706 5.49018,2.68706 7.3641,-0.27686 31.82984,13.4682 52.38824,29.43214 6.48444,5.03528 18.9967,12.71534 27.80504,17.0668 11.0229,5.4455 17.07718,9.77686 19.42214,13.89498 2.03084,3.56648 5.05008,5.9832 7.47492,5.9832 2.50128,0 5.94412,2.88838 8.93968,7.5 6.41708,9.879 18.37034,22.5 21.3096,22.5 1.41236,0 1.95742,-1.97586 1.37932,-5 -0.6016,-3.14702 -0.0418,-5 1.51056,-5 3.35524,0 36.86842,24.89996 42.53974,31.6066 12.9407,15.30308 27.20498,39.88228 26.77242,46.13236 -0.1914,2.76606 2.16882,7.58264 5.6694,11.5696 3.29856,3.75684 6.12798,8.8243 6.2876,11.26104 0.1596,2.43672 0.48068,7.5804 0.7135,11.4304 0.7325,12.11378 4.6315,29.57802 7.6757,34.38072 1.61036,2.5406 3.52332,7.47844 4.25104,10.97296 1.22696,5.89212 1.80294,6.27582 7.92812,5.28184 5.7648,-0.9355 7.27524,-0.1932 11.87324,5.8351 2.8975,3.79882 5.26818,7.8075 5.26818,8.90818 0,1.1007 1.78544,3.61706 3.96766,5.59192 2.6831,2.42818 3.59552,5.07336 2.81824,8.17028 -0.97198,3.8727 -0.50888,4.41208 3.00026,3.49442 7.2016,-1.88326 13.5342,1.03274 29.09242,13.39628 10.14586,8.06254 15.12142,13.38766 15.12142,16.18378 0,2.29204 1.56808,6.82192 3.48464,10.06638 3.33458,5.645 3.3216,6.17502 -0.3016,12.30858 -2.08242,3.52526 -5.0575,8.86666 -6.61128,11.8698 -1.55378,3.00314 -3.66806,5.98124 -4.6984,6.61804 -1.03036,0.63678 -1.87336,3.6135 -1.87336,6.61494 0,3.89828 -2.8422,8.25662 -9.94978,15.25732 -5.47238,5.3901 -11.27368,9.99448 -12.89178,10.23196 -1.6181,0.2375 -5.76364,3.64548 -9.21232,7.5733 -8.3803,9.54464 -23.46992,20.50512 -41.67024,30.2676 -15.86944,8.5122 -23.44214,16.71384 -8.29922,8.9885 4.62604,-2.36002 8.81472,-3.8872 9.30818,-3.39372 0.82078,0.82078 -9.32092,7.21328 -29.956,18.88182 -8.18856,4.6304 -21.32884,6.11764 -21.32884,2.41406 0,-1.14726 3.6,-7.62622 8,-14.39768 4.4,-6.77144 8,-14.4978 8,-17.16966 0,-4.58742 -0.46862,-4.78302 -8.41504,-3.51234 -4.62826,0.7401 -12.05326,2.95292 -16.5,4.9174 -4.44672,1.96448 -10.67362,4.21964 -13.83752,5.01148 -5.2646,1.3176 -5.65778,1.0494 -4.63534,-3.16176 7.40018,-30.47944 9.4197,-40.67474 10.41944,-52.6015 1.61176,-19.22798 0.139,-20.87914 -13.35004,-14.96766 -7.83066,3.43172 -15.61906,4.91644 -29.1815,5.56292 -10.175,0.48502 -18.5,0.1928 -18.5,-0.6493 0,-0.84212 4.05,-5.86092 9,-11.15286 4.95,-5.29196 9,-10.6054 9,-11.80764 0,-1.51072 -9.26714,-2.0005 -30.003,-1.58568 -32.0026,0.64022 -32.66712,0.42358 -27.7037,-9.03126 1.26132,-2.40268 4.86132,-7.32484 8,-10.93812 3.13868,-3.61326 5.7067,-8.2859 5.7067,-10.38362 0,-3.5006 -1.15054,-3.7176 -14,-2.64034 -7.77236,0.6516 -14.01392,0.37742 -14.03128,-0.61636 -0.018,-0.98454 2.11822,-6.29008 4.74536,-11.79008 2.62714,-5.5 5.81342,-13.15 7.08062,-17 2.11578,-6.4282 1.89246,-7.35894 -2.73388,-11.3942 -2.77084,-2.4168 -6.55828,-5.24506 -8.41658,-6.28502 -2.62104,-1.4668 -3.2697,-4.2798 -2.8926,-12.5441 0.26736,-5.8593 1.5405,-11.92376 2.82922,-13.47656 1.88138,-2.26694 0.8727,-4.09434 -5.11888,-9.27366 -8.52706,-7.37106 -9.43416,-9.83872 -2.96198,-8.05768 4.32792,1.19098 4.3547,1.12196 0.70018,-1.80494 -4.25614,-3.40874 -25.63212,-11.749 -38.89926,-15.17732 -6.959,-1.79826 -8.5067,-2.9836 -7.73732,-5.92572 1.0985,-4.20068 0.40808,-4.34048 -41.0071,-8.3036 -20.81452,-1.99178 -26.90922,-1.951 -33.5,0.22416 -4.8501,1.60068 -8.08182,3.92444 -8.1201,5.83876 -0.0748,3.73528 -4.59806,10.17552 -7.15688,10.18982 -0.97874,0.006 -4.47952,2.2231 -7.77952,4.92806 -4.3797,3.59 -5.09626,4.93758 -2.65346,4.99008 1.84062,0.0396 6.02054,-2.17808 9.28872,-4.92808 3.2682,-2.75 8.38984,-5 11.38144,-5 8.11342,0 47.5272,10.00174 50.9833,12.93764 1.65,1.40164 7.95,4.136 14,6.07636 14.08904,4.51862 21.18618,8.10864 30.5,15.42808 8.51006,6.68782 9.20972,9.89 3.5,16.01866 -5.77372,6.19738 -5.0043,10.38638 4,21.7777 4.4,5.5664 8,11.04354 8,12.17142 0,1.12786 3.18184,4.9651 7.07074,8.5272 l 7.07074,6.47656 -2.51438,9.40096 c -2.79904,10.4653 -1.74328,12.18232 8.91452,14.498 7.78046,1.69052 8.58932,4.17518 3.5695,10.96486 -2.60732,3.5266 -4.10896,8.07298 -3.73554,11.30986 l 0.62442,5.4127 19,-0.6603 c 13.94254,-0.48454 19.9834,0.0786 22.6945,2.1154 3.54308,2.66192 3.48118,3.02922 -1.51016,8.96108 -2.86256,3.40196 -5.75394,8.93182 -6.4253,12.28858 -1.05204,5.26026 -0.55648,6.26988 3.58824,7.31012 2.64486,0.66382 7.30732,0.25704 10.36098,-0.90396 3.05368,-1.161 8.29846,-2.11092 11.6551,-2.11092 6.50688,0 6.54762,0.22962 2.48412,14 -1.3979,4.7372 -1.27498,4.8331 2.33854,1.8248 4.79398,-3.99108 32.27228,-18.82434 38.38582,-20.72134 4.53796,-1.4081 4.56192,-1.31738 3.23274,12.23896 -0.73652,7.51168 -4.23376,22.65758 -7.77166,33.65758 -5.9339,18.44954 -9.64988,33 -8.42778,33 0.27784,0 5.77248,-2.73286 12.21032,-6.07302 11.99862,-6.22526 15.80974,-6.5 11.07796,-0.79856 -3.47424,4.1862 -10.2662,22.44778 -10.7381,28.87158 -0.20202,2.75 -1.11412,6.6355 -2.02688,8.63444 -1.01246,2.21728 -0.77618,4.51782 0.606,5.9 3.64458,3.64458 2.73606,5.14424 -5.73444,9.46556 -4.4,2.24472 -8,4.94472 -8,6 0,2.77122 -13.41376,9.19992 -26.11852,12.51758 -8.16486,2.13214 -12.208,2.31218 -15.91366,0.7086 z m 192.03218,-162.9356 c 11.58632,-9.00154 17.97756,-16.38772 17.99006,-20.79058 0.022,-7.74166 -6.80784,-2.42498 -24.49006,19.06438 -11.62888,14.13264 -10.01916,14.56014 6.5,1.7262 z M 577.43268,468.33379 c 10.59482,-6.06174 11.17674,-6.16782 16.6387,-3.03308 6.07412,3.48606 7.67032,1.1678 3.03516,-4.40814 -1.44362,-1.73662 -4.32486,-7.20748 -6.40276,-12.15748 -2.07792,-4.95 -6.0993,-12.6 -8.9364,-17 -2.83712,-4.4 -6.3709,-10.40576 -7.85286,-13.34614 -4.69542,-9.31628 -20.75726,-27.43268 -37.04164,-41.7799 -15.48674,-13.64448 -23.16984,-17.61528 -20.0725,-10.37396 0.8234,1.925 4.07524,10.7 7.22632,19.5 3.1511,8.8 7.51986,18.25 9.70836,21 2.18848,2.75 5.69214,8.15 7.78588,12 2.09372,3.85 9.74758,11.7514 17.00856,17.55866 7.26098,5.80726 13.20178,11.43226 13.20178,12.5 0,1.06774 -3.28948,1.94134 -7.30998,1.94134 -7.15166,0 -7.23258,0.0856 -3.7364,3.94876 3.39968,3.75658 3.4047,4.20648 0.1034,9.245 -3.36218,5.13132 -3.94652,5.2656 -18.7636,4.31164 -16.0304,-1.03206 -23.90838,-3.87168 -45.29336,-16.326 -13.23464,-7.70768 -16.86084,-8.83142 -12.83158,-3.97646 3.2758,3.9471 23.14298,16.79706 25.96974,16.79706 1.13326,0 4.94078,1.49346 8.46116,3.31878 19.46164,10.09096 41.7695,10.19662 59.10208,0.27992 z m -198.7014,-37.5987 c -0.67984,-1.1 -5.45796,-1.87228 -10.61804,-1.71618 l -9.38196,0.2838 8,1.43238 c 12.11004,2.16828 13.34006,2.16828 12,0 z m -238.1142,262.9054 c 2.5094,-13.3763 21.58494,-52.80468 49.30208,-101.9054 11.177,-19.8 22.64462,-40.725 25.4836,-46.5 l 5.1618,-10.5 10.58336,0 c 8.0741,0 10.58336,0.71128 10.58336,3 0,1.65 1.35,3 3,3 3.77874,0 3.75164,0.89812 -0.35116,11.64118 -2.70338,7.07866 -2.88088,9.52798 -0.91824,12.67064 2.06654,3.30908 1.41574,5.61194 -4.32156,15.29196 -3.71496,6.26792 -11.5307,20.14844 -17.36832,30.84558 -10.9745,20.11024 -20.17816,31.75696 -17.03012,21.55064 4.35084,-14.10584 20.3486,-46.86792 26.25524,-53.7685 6.73308,-7.8661 8.44462,-12.2315 4.79562,-12.2315 -1.0662,0 -5.23556,5.15406 -9.26524,11.45348 -4.02968,6.2994 -10.13234,14.4341 -13.56146,18.0771 -3.54336,3.76436 -5.97016,8.28454 -5.62182,10.47116 0.33714,2.11614 -5.35778,16.00426 -12.65536,30.86248 -7.29758,14.85822 -12.7174,27.90638 -12.04404,28.99588 1.25056,2.02344 -8.09498,21.91854 -13.68818,29.1399 -3.9445,5.09272 -4.0126,3.37264 -0.22536,-5.69152 3.86346,-9.24658 3.79328,-9.8298 -1,-8.30848 -4.14606,1.31592 -5.30046,-0.79048 -2.247,-4.1 2.46684,-2.6737 11.71206,-19.74816 15.15612,-27.99098 2.23684,-5.35352 2.32038,-6.90902 0.37108,-6.90902 -5.53788,0 -9.59192,5.94058 -18.01842,26.40328 -5.59002,13.57466 -10.90748,23.24436 -14.5378,26.4368 -7.76482,6.82818 -9.40612,6.42306 -7.83818,-1.93468 z M 669.9112,478.88673 c -1.89024,-1.19534 -3.11856,-6.9548 -3.72532,-17.4675 l -0.9052,-15.68414 10.71094,-10 c 5.89102,-5.5 13.41612,-12.06104 16.72244,-14.5801 3.30632,-2.51906 27.62222,-25.91906 54.03532,-52 26.4131,-26.08094 51.3759,-50.50838 55.4729,-54.2832 13.58858,-12.52 10.23956,-4.5747 -5.17418,12.27536 -36.505,39.90666 -57.30058,64.83566 -57.30844,68.69938 -0.004,2.2613 -2.31786,7.2113 -5.14054,11 -2.8227,3.7887 -9.08086,12.73856 -13.90702,19.88856 -9.17804,13.59734 -42.50378,52.25994 -45.96082,53.32108 -1.1,0.33764 -3.26904,-0.1886 -4.82008,-1.16944 z m 95.82008,-103.71572 c 0,-1.1422 3.46946,-6.43254 7.7099,-11.75632 14.96076,-18.7829 23.73268,-23.01406 11.79296,-5.6884 -6.73174,9.76842 -19.50286,21.1918 -19.50286,17.44472 z m -187,-50.71218 c -4.4,-2.2643 -10.1161,-4.73236 -12.70244,-5.48462 -4.66432,-1.35666 -4.63298,-1.45636 3.86636,-12.30344 15.3428,-19.58084 57.00652,-66.65502 69.4207,-78.43568 12.94158,-12.28114 19.33718,-15.2571 13.43714,-6.25252 -2.71894,4.14962 -2.98526,6.24182 -1.2729,10 1.19096,2.61388 3.07904,4.75252 4.19572,4.75252 2.29136,0 8.88136,-9.05392 22.05542,-30.30172 12.18812,-19.65764 40.2706,-48.78986 45.20608,-46.89594 2.51902,0.96664 4.68372,-0.004 7.07494,-3.1749 5.71472,-7.57616 6.56976,-2.4306 1.13666,6.84028 -5.43826,9.2797 -23.13736,30.44376 -52.2945,62.53228 -9.99512,11 -34.21538,38.675 -53.82278,61.5 -19.6074,22.825 -36.2462,41.46414 -36.9751,41.4203 -0.72892,-0.0438 -4.9253,-1.93228 -9.3253,-4.19656 z M 433.08454,242.47799 c -1.22282,-4.67612 4.20546,-12.3171 44.42258,-62.53028 21.57536,-26.93794 48.02054,-55.40672 48.14272,-51.82662 0.0448,1.3123 -4.70894,7.6123 -10.56384,14 -13.31764,14.52956 -31.35472,38.4394 -31.35472,41.56364 0,1.2942 -2.33448,4.53498 -5.18772,7.20174 -2.85324,2.66674 -10.22654,12.49862 -16.38512,21.84862 -10.43964,15.84954 -23.39912,32.24108 -26.5504,33.58178 -0.7521,0.31998 -1.88768,-1.40752 -2.5235,-3.83888 z m -9.95286,-12.2429 c 8.96932,-11.86304 26.99196,-33.27128 30.7277,-36.5 l 4.62814,-4 -4.81944,7 c -8.71798,12.66238 -28.46896,36 -30.46736,36 -1.24214,0 -1.2674,-0.915 -0.069,-2.5 z m 42.64918,-51 c 0.0806,-2.4412 14.16934,-20.94774 15.1787,-19.9384 1.28492,1.28492 -11.43156,21.4384 -13.52724,21.4384 -0.93556,0 -1.67872,-0.675 -1.65146,-1.5 z"
       id="path4149"
       inkscape:connector-curvature="0" />
  </g>
</svg>
